<svg width="76" height="76" viewBox="0 0 76 76" fill="none" xmlns="http://www.w3.org/2000/svg">
<g clip-path="url(#clip0_127_1878)">
<path d="M39.8976 27.8623C38.4496 27.8623 37.0123 28.1102 35.6479 28.5953L13.3975 36.5064L39.8976 46.5787L40.2653 46.2927V27.8702C40.1427 27.8666 40.0203 27.8623 39.8976 27.8623Z" fill="#05858D"/>
<path d="M25.9303 32.0503L13.3975 36.5063L25.7885 41.2159C22.9999 38.8447 23.0623 34.3379 25.9303 32.0503Z" fill="#05858D"/>
<path d="M44.1472 28.5953C42.7828 28.1102 41.3455 27.8623 39.8975 27.8623V46.4303L66.3976 36.5064L44.1472 28.5953Z" fill="#12CDD9"/>
<path d="M39.8976 45.9849L35.4165 51.2808C35.0451 51.7937 34.3795 51.9997 33.7832 51.7864L13.3975 44.4949V64.1288C13.3975 65.2927 14.1288 66.331 15.2248 66.7231L36.307 74.2637C37.4592 74.6758 38.6739 74.8866 39.8975 74.8866C40.0201 74.8866 40.1427 74.8828 40.2652 74.8787V46.4316L39.8976 45.9849Z" fill="#12CDD9"/>
<path d="M18.7027 65.6452V46.3925L13.3975 44.4949V64.1288C13.3975 65.2927 14.1288 66.331 15.2248 66.7231L19.9962 68.4297C19.1929 67.7497 18.7027 66.7403 18.7027 65.6452Z" fill="#05858D"/>
<path d="M46.0119 51.9348C45.4156 52.1482 44.7501 51.9421 44.3786 51.4293L39.8975 45.9851V74.8865C41.1212 74.8865 42.3357 74.6759 43.4881 74.2637L64.5703 66.7231C65.6663 66.331 66.3976 65.2927 66.3976 64.1288V44.6433L46.0119 51.9348Z" fill="#12CDD9"/>
<path d="M52.3959 4.42223C51.164 3.7921 50.1577 2.78404 49.5304 1.5505C49.3941 1.28257 49.1206 1.1123 48.82 1.1123C48.5192 1.1123 48.2458 1.28257 48.1095 1.5505C47.4822 2.78404 46.4759 3.79195 45.244 4.42223C44.977 4.55879 44.8076 4.83178 44.8076 5.13177V5.15137C44.8076 5.4481 44.9718 5.72197 45.2362 5.85691C46.4641 6.48318 47.4678 7.48455 48.0971 8.71067C48.2321 8.97401 48.5056 9.13729 48.8016 9.13729H48.8387C49.1347 9.13729 49.4081 8.97401 49.5432 8.71067C50.1724 7.48455 51.1762 6.48318 52.4041 5.85691C52.6684 5.72212 52.8326 5.44825 52.8326 5.15137V5.13177C52.8323 4.83192 52.6629 4.55894 52.3959 4.42223Z" fill="#FFE02F"/>
<path d="M34.4299 7.7133C33.508 7.24172 32.7549 6.48736 32.2854 5.56423C32.1834 5.36369 31.9787 5.23633 31.7537 5.23633C31.5287 5.23633 31.324 5.36369 31.222 5.56423C30.7525 6.48736 29.9995 7.24172 29.0775 7.7133C28.8777 7.81558 28.751 8.01983 28.751 8.24427V8.25896C28.751 8.48102 28.8739 8.68602 29.0717 8.78695C29.9907 9.25557 30.742 10.005 31.2128 10.9227C31.3139 11.1198 31.5186 11.242 31.7401 11.242H31.7678C31.9893 11.242 32.194 11.1198 32.2951 10.9227C32.7659 10.005 33.5172 9.25557 34.4361 8.78695C34.634 8.68602 34.7569 8.48102 34.7569 8.25896V8.24427C34.7565 8.01983 34.6297 7.81558 34.4299 7.7133Z" fill="#FFEA7E"/>
<path d="M48.2419 5.85691C47.9776 5.72212 47.8134 5.44825 47.8134 5.15137V5.13177C47.8134 4.83178 47.9828 4.55879 48.2498 4.42223C49.0505 4.01268 49.755 3.44267 50.3229 2.75569C50.017 2.38563 49.7501 1.98231 49.5304 1.5505C49.3941 1.28257 49.1206 1.1123 48.82 1.1123C48.5194 1.1123 48.2458 1.28257 48.1095 1.5505C47.4822 2.78404 46.4759 3.79195 45.244 4.42223C44.977 4.55879 44.8076 4.83178 44.8076 5.13177V5.15137C44.8076 5.4481 44.9718 5.72197 45.2362 5.85691C46.4641 6.48318 47.4678 7.48455 48.0971 8.71067C48.2321 8.97401 48.5056 9.13729 48.8016 9.13729H48.8387C49.1347 9.13729 49.4081 8.97401 49.5432 8.71067C49.7603 8.28762 50.0229 7.89202 50.3231 7.52864C49.7532 6.83899 49.046 6.26705 48.2419 5.85691Z" fill="#FBC700"/>
<path d="M31.6691 8.78695C31.4712 8.68602 31.3485 8.48102 31.3485 8.25896V8.24427C31.3485 8.01983 31.4753 7.81543 31.6751 7.7133C32.1959 7.44686 32.6601 7.08764 33.0526 6.66133C32.7503 6.33298 32.4897 5.9659 32.2854 5.56423C32.1835 5.36369 31.9788 5.23633 31.7537 5.23633C31.5287 5.23633 31.324 5.36369 31.222 5.56423C30.7525 6.48736 29.9995 7.24172 29.0775 7.7133C28.8777 7.81558 28.751 8.01983 28.751 8.24427V8.25896C28.751 8.48102 28.8739 8.68602 29.0716 8.78695C29.9906 9.25557 30.7418 10.005 31.2127 10.9227C31.3138 11.1198 31.5185 11.242 31.7399 11.242H31.7677C31.9892 11.242 32.1938 11.1198 32.2949 10.9227C32.4977 10.5277 32.7551 10.1662 33.0527 9.84249C32.6586 9.41425 32.1924 9.05384 31.6691 8.78695Z" fill="#FFE02F"/>
<path d="M70.3922 42.0211L66.3976 36.5063L39.8975 45.9849L44.3786 52.1713C44.7501 52.6841 45.4156 52.8902 46.0119 52.6768L69.7182 44.1976C70.6123 43.878 70.9491 42.7898 70.3922 42.0211Z" fill="#12CDD9"/>
<path d="M9.40334 42.0211L13.3979 36.5063L39.898 45.9849L35.4169 52.1713C35.0454 52.6841 34.3799 52.8902 33.7836 52.6768L10.0771 44.1976C9.1832 43.878 8.84639 42.7898 9.40334 42.0211Z" fill="#12CDD9"/>
<path d="M13.692 43.5972L17.7108 38.0491L13.3977 36.5063L9.4033 42.0211C8.84635 42.7898 9.18331 43.8781 10.0771 44.1978L13.7848 45.524C13.3293 45.0052 13.2492 44.2086 13.692 43.5972Z" fill="#05858D"/>
<path d="M12.5977 35.8536L8.60336 41.3682C7.61073 42.7384 8.20954 44.676 9.80394 45.2462L12.3862 46.1698V64.1288C12.3862 65.7587 13.4173 67.2226 14.952 67.7714L36.0341 75.312C38.5551 76.2139 41.3576 76.2447 43.965 75.312L65.0472 67.7714C66.582 67.2226 67.613 65.7587 67.613 64.1288V58.4464C67.613 57.8314 67.1147 57.3331 66.4997 57.3331C65.8847 57.3331 65.3864 57.8314 65.3864 58.4464V64.1288C65.3864 64.8206 64.9488 65.4419 64.2975 65.675L43.2151 73.2156C42.5319 73.4599 41.8283 73.6249 41.1128 73.7086V49.4199L43.579 52.8245C44.232 53.7266 45.4305 54.1044 46.4891 53.7254C47.6689 53.3034 64.8643 47.153 65.3866 46.9662V53.2508C65.3866 53.8658 65.8849 54.3641 66.4999 54.3641C67.1149 54.3641 67.6132 53.8658 67.6132 53.2508V46.1698L70.1954 45.2462C71.7886 44.6763 72.3892 42.739 71.3957 41.368L71.3959 41.3682L67.4015 35.8536C67.2876 35.6961 67.088 35.5342 66.8727 35.4577L57.2225 32.0267C56.643 31.8202 56.0065 32.1232 55.8006 32.7027C55.5945 33.282 55.8972 33.9185 56.4766 34.1246L63.1852 36.5099L41.1127 44.4045V29.0291C42.0541 29.1198 42.9798 29.3256 43.8762 29.6445L51.5537 32.3743C52.1331 32.5806 52.7697 32.2778 52.9756 31.6983C53.1816 31.119 52.879 30.4824 52.2996 30.2764L44.6221 27.5466C41.7069 26.5099 38.443 26.4561 35.3767 27.5466L13.1263 35.4577C12.9141 35.5333 12.7171 35.6888 12.5977 35.8536ZM10.4065 42.6744L13.9108 37.8362L38.2273 46.5336C37.4021 47.6727 38.1216 46.6797 34.6166 51.5185C34.536 51.6297 34.3889 51.6748 34.2601 51.629C33.8459 51.4808 10.9867 43.3046 10.5537 43.1497C10.3582 43.0797 10.2846 42.8426 10.4065 42.6744ZM15.7016 65.675C15.0503 65.4421 14.6127 64.8206 14.6127 64.1288V46.9662L33.5103 53.7254C34.5786 54.1076 35.7684 53.7172 36.4152 52.831C36.4168 52.8288 36.4186 52.8269 36.4202 52.8246C36.4202 52.8245 36.4202 52.8245 36.4202 52.8245L38.8862 49.4199V73.7084C38.1708 73.6247 37.467 73.4598 36.7839 73.2156L15.7016 65.675ZM69.5926 42.6744C69.7143 42.8425 69.6407 43.0797 69.4455 43.1497C69.2227 43.2295 45.9732 51.5451 45.7391 51.6288C45.6103 51.6751 45.463 51.6298 45.3824 51.5185L41.7716 46.5336L66.0882 37.8362L69.5926 42.6744ZM36.1227 29.6445C37.0192 29.3258 37.9447 29.1199 38.8861 29.0291V44.4045C37.9313 44.063 17.6738 36.8174 16.8137 36.5097L36.1227 29.6445Z" fill="#252836"/>
<path d="M41.1124 23.2002V9.2864C41.1124 8.67141 40.614 8.1731 39.999 8.1731C39.3841 8.1731 38.8857 8.67141 38.8857 9.2864V23.2C38.8857 23.815 39.3841 24.3133 39.999 24.3133C40.614 24.3133 41.1124 23.815 41.1124 23.2002Z" fill="#FF8700"/>
<path d="M54.7407 11.4147C54.4227 11.5538 46.9396 14.9262 45.7023 24.2024C45.6135 24.8685 46.131 25.463 46.8073 25.463C47.3567 25.463 47.8348 25.0562 47.9095 24.4966C48.3558 21.1494 49.7809 18.2802 52.1449 15.9687C53.9215 14.2315 55.5975 13.4706 55.6351 13.4539C56.1968 13.2067 56.4528 12.5513 56.2068 11.9887C55.9606 11.4254 55.3046 11.1686 54.7407 11.4147Z" fill="#FF8700"/>
<path d="M52.4784 26.5806C52.1729 27.1142 52.3578 27.7944 52.8915 28.0997C53.4244 28.4049 54.105 28.2207 54.4106 27.6866C56.9965 23.1693 60.8375 21.4058 63.6046 20.7221C64.2015 20.5745 64.5657 19.971 64.4182 19.3741C64.2706 18.7772 63.6669 18.4126 63.0702 18.5605C60.4596 19.2059 55.6122 21.1056 52.4784 26.5806Z" fill="#FF8700"/>
<path d="M23.7917 11.9887C23.5455 12.5521 23.8024 13.2085 24.3658 13.4549C24.4321 13.4838 31.016 16.4504 32.0891 24.4968C32.1706 25.1082 32.7326 25.5344 33.3399 25.4532C33.9494 25.3718 34.3775 24.8119 34.2963 24.2024C33.059 14.9262 25.5757 11.5536 25.2577 11.4147C24.6944 11.1686 24.0383 11.4255 23.7917 11.9887Z" fill="#FF8700"/>
<path d="M15.5806 19.374C15.4332 19.9709 15.7975 20.5745 16.3942 20.722C19.1613 21.4059 23.0025 23.1693 25.5881 27.6865C25.8938 28.2206 26.5744 28.405 27.1073 28.0996C27.6409 27.7941 27.8259 27.114 27.5204 26.5805C24.3867 21.1056 19.539 19.2057 16.9286 18.5604C16.3312 18.4127 15.7281 18.7774 15.5806 19.374Z" fill="#FF8700"/>
<path d="M60.377 11.3215C59.762 11.3215 59.2637 11.8198 59.2637 12.4348C59.2637 13.0498 59.762 13.5481 60.377 13.5481H61.1522V14.3234C61.1522 14.9384 61.6505 15.4367 62.2655 15.4367C62.8805 15.4367 63.3788 14.9384 63.3788 14.3234V13.5481H64.1541C64.7691 13.5481 65.2674 13.0498 65.2674 12.4348C65.2674 11.8198 64.7691 11.3215 64.1541 11.3215H63.3788V10.5464C63.3788 9.93141 62.8805 9.43311 62.2655 9.43311C61.6505 9.43311 61.1522 9.93141 61.1522 10.5464V11.3215H60.377Z" fill="#FF8700"/>
<path d="M15.5477 26.7489H14.7725C14.1575 26.7489 13.6592 27.2472 13.6592 27.8622C13.6592 28.4772 14.1575 28.9755 14.7725 28.9755H15.5477V29.7508C15.5477 30.3657 16.0461 30.8641 16.661 30.8641C17.276 30.8641 17.7743 30.3657 17.7743 29.7508V28.9755H18.5496C19.1646 28.9755 19.6629 28.4772 19.6629 27.8622C19.6629 27.2472 19.1646 26.7489 18.5496 26.7489H17.7743V25.9736C17.7743 25.3587 17.276 24.8604 16.661 24.8604C16.0461 24.8604 15.5477 25.3587 15.5477 25.9736V26.7489Z" fill="#FF8700"/>
<path d="M53.0046 3.43129C51.9872 2.91071 51.1418 2.06356 50.6244 1.04586C49.9145 -0.348742 47.9286 -0.348594 47.2187 1.04615C46.7014 2.06356 45.8559 2.91086 44.8386 3.43115C43.4448 4.14396 43.4541 6.14612 44.8319 6.84869C45.8449 7.36526 46.6889 8.20707 47.2082 9.21913C47.9147 10.5958 49.9285 10.5961 50.6352 9.21899C51.1545 8.20722 51.9985 7.36541 53.0116 6.84854C54.3888 6.14612 54.3988 4.14455 53.0046 3.43129ZM48.9215 7.72493C48.2823 6.67516 47.3882 5.78111 46.3385 5.14177C47.3887 4.50259 48.2824 3.60942 48.9216 2.56039C49.561 3.60942 50.4546 4.50259 51.5045 5.14177C50.4549 5.78111 49.5608 6.67501 48.9215 7.72493Z" fill="#252836"/>
<path d="M30.3234 11.4313C30.9559 12.6633 32.7541 12.6652 33.3867 11.4313C33.7486 10.7259 34.3369 10.1391 35.043 9.77897C36.2675 9.15463 36.2944 7.36533 35.0387 6.72243C35.0386 6.72228 35.0384 6.72228 35.0383 6.72214C34.3292 6.3595 33.74 5.76915 33.3792 5.0596C32.7446 3.81196 30.966 3.81167 30.3309 5.05975C29.9702 5.769 29.3811 6.3595 28.6711 6.72258C27.434 7.35627 27.4246 9.14542 28.6672 9.77897C29.3732 10.1389 29.9615 10.7259 30.3234 11.4313ZM31.855 6.82782C32.2469 7.37691 32.7305 7.86038 33.28 8.25196C32.7308 8.6437 32.2469 9.12746 31.855 9.67699C31.4632 9.12776 30.9795 8.6437 30.4301 8.25196C30.9796 7.86023 31.4634 7.37691 31.855 6.82782Z" fill="#252836"/>
</g>
<defs>
<clipPath id="clip0_127_1878">
<rect width="76" height="76" fill="white"/>
</clipPath>
</defs>
</svg>
